<?xml version="1.0" encoding="UTF-8"?>
<!DOCTYPE svg PUBLIC "-//W3C//DTD SVG 1.0//EN" "http://www.w3.org/TR/2001/REC-SVG-20010904/DTD/svg10.dtd">
<!-- Creator: CorelDRAW Home & Student X7 -->
<svg xmlns="http://www.w3.org/2000/svg" xml:space="preserve" width="80px" height="80px" version="1.0" shape-rendering="geometricPrecision" text-rendering="geometricPrecision" image-rendering="optimizeQuality" fill-rule="evenodd" clip-rule="evenodd"
viewBox="0 0 80 80"
 xmlns:xlink="http://www.w3.org/1999/xlink">
 <g id="Camada_x0020_1">
  <metadata id="CorelCorpID_0Corel-Layer"/>
  <g id="_330226800">
   <circle fill="#8383DB" stroke="#8383DB" stroke-width="0.900018" cx="40" cy="40" r="36"/>
   <g>
    <path fill="white" d="M24 35l31 0 0 17 -31 0 0 -17zm0 -10l6 0 0 2 4 0 0 -2 12 0 0 2 4 0 0 -2 5 0 0 6 -31 0 0 -6zm6 -4c-7,0 -10,-1 -10,2l0 31c0,2 1,2 2,2l35 0c2,0 2,0 2,-2l0 -31c0,-3 -3,-2 -9,-2l0 -4 -4 0 0 4 -12 0 0 -4 -4 0 0 4z"/>
    <path fill="white" d="M33 39l4 5 -4 4 3 2 4 -3 4 3 3 -2 -4 -4 4 -5 -3 -2 -4 3c-2,-1 -3,-2 -4,-3l-3 2z"/>
   </g>
  </g>
 </g>
</svg>
