<?xml version="1.0" encoding="UTF-8"?>
<!DOCTYPE svg PUBLIC "-//W3C//DTD SVG 1.0//EN" "http://www.w3.org/TR/2001/REC-SVG-20010904/DTD/svg10.dtd">
<!-- Creator: CorelDRAW Home & Student X7 -->
<svg xmlns="http://www.w3.org/2000/svg" xml:space="preserve" width="72px" height="72px" version="1.0" shape-rendering="geometricPrecision" text-rendering="geometricPrecision" image-rendering="optimizeQuality" fill-rule="evenodd" clip-rule="evenodd"
viewBox="0 0 72 72"
 xmlns:xlink="http://www.w3.org/1999/xlink">
 <defs>
    <linearGradient id="id0" gradientUnits="userSpaceOnUse" x1="79.3736" y1="20.0409" x2="-7.37362" y2="51.9591">
     <stop offset="0" stop-opacity="1" stop-color="fuchsia"/>
     <stop offset="0.419608" stop-opacity="1" stop-color="#B34CFF"/>
     <stop offset="1" stop-opacity="1" stop-color="#6699FF"/>
    </linearGradient>
 </defs>
 <g id="Camada_x0020_1">
  <metadata id="CorelCorpID_0Corel-Layer"/>
  <g id="_330217200">
   <circle fill="url(#id0)" cx="36" cy="36" r="36"/>
   <g>
    <path fill="white" d="M20 34l32 0 0 18 -32 0 0 -18zm0 -10l6 0 0 2 4 0 0 -2 12 0 0 2 4 0 0 -2 6 0 0 6 -32 0 0 -6zm6 -4c-6,0 -9,-1 -9,2l0 32c0,1 0,2 1,2l36 0c1,0 2,-1 2,-2l0 -32c0,-3 -4,-2 -10,-2l0 -3 -4 0 0 3 -12 0 0 -3 -4 0 0 3z"/>
    <path fill="white" d="M35 43c-2,-1 -2,-2 -4,-4l-3 3 7 7 10 -10 -3 -2 -7 6z"/>
   </g>
  </g>
 </g>
</svg>
