<?xml version="1.0" encoding="UTF-8"?>
<!DOCTYPE svg PUBLIC "-//W3C//DTD SVG 1.0//EN" "http://www.w3.org/TR/2001/REC-SVG-20010904/DTD/svg10.dtd">
<!-- Creator: CorelDRAW Home & Student X7 -->
<svg xmlns="http://www.w3.org/2000/svg" xml:space="preserve" width="80px" height="80px" version="1.0" shape-rendering="geometricPrecision" text-rendering="geometricPrecision" image-rendering="optimizeQuality" fill-rule="evenodd" clip-rule="evenodd"
viewBox="0 0 80 80"
 xmlns:xlink="http://www.w3.org/1999/xlink">
 <g id="Camada_x0020_1">
  <metadata id="CorelCorpID_0Corel-Layer"/>
  <g id="_330219600">
   <circle fill="#8383DB" stroke="#8383DB" stroke-width="0.900018" cx="40" cy="40" r="36"/>
   <g>
    <path fill="white" d="M24 38l32 0 0 18 -32 0 0 -18zm0 -10l6 0 0 2 4 0 0 -2 12 0 0 2 4 0 0 -2 6 0 0 6 -32 0 0 -6zm6 -4c-6,0 -10,-1 -10,2l0 32c0,1 1,2 2,2l36 0c1,0 2,-1 2,-2l0 -32c0,-3 -4,-2 -10,-2l0 -4 -4 0 0 4 -12 0 0 -4 -4 0 0 4z"/>
    <path fill="white" d="M39 47c-2,-1 -2,-2 -4,-4l-3 3 7 7 10 -10 -3 -2 -7 6z"/>
   </g>
  </g>
 </g>
</svg>
