<?xml version="1.0" encoding="UTF-8"?>
<!DOCTYPE svg PUBLIC "-//W3C//DTD SVG 1.0//EN" "http://www.w3.org/TR/2001/REC-SVG-20010904/DTD/svg10.dtd">
<!-- Creator: CorelDRAW Home & Student X7 -->
<svg xmlns="http://www.w3.org/2000/svg" xml:space="preserve" width="72px" height="72px" version="1.0" shape-rendering="geometricPrecision" text-rendering="geometricPrecision" image-rendering="optimizeQuality" fill-rule="evenodd" clip-rule="evenodd"
viewBox="0 0 72 72"
 xmlns:xlink="http://www.w3.org/1999/xlink">
 <defs>
    <linearGradient id="id0" gradientUnits="userSpaceOnUse" x1="79.3736" y1="20.0409" x2="-7.37362" y2="51.9591">
     <stop offset="0" stop-opacity="1" stop-color="fuchsia"/>
     <stop offset="0.419608" stop-opacity="1" stop-color="#B34CFF"/>
     <stop offset="1" stop-opacity="1" stop-color="#6699FF"/>
    </linearGradient>
 </defs>
 <g id="Camada_x0020_1">
  <metadata id="CorelCorpID_0Corel-Layer"/>
  <g id="_330201576">
   <circle fill="url(#id0)" cx="36" cy="36" r="36"/>
   <path fill="white" d="M25 26c3,-1 9,-6 11,-6 2,0 8,5 10,6l0 1c-2,0 -8,5 -10,5 -2,0 -8,-5 -11,-5l0 -1zm-7 0c1,2 17,11 18,11 1,0 17,-9 18,-11 -1,-2 -17,-11 -18,-11 -1,0 -7,4 -9,5 -2,2 -8,4 -9,6z"/>
   <path fill="white" d="M18 43c1,2 17,11 18,11 1,0 17,-9 18,-11 -1,-1 -2,-1 -3,-2l-15 9 -14 -8c-1,-1 0,0 -1,-1 -1,1 -2,1 -3,2z"/>
   <path fill="white" d="M18 35c1,1 17,11 18,11 1,0 17,-10 18,-11 -1,-2 -2,-2 -3,-3l-7 5c-8,5 -6,7 -21,-4l-2 -1c-1,1 -2,1 -3,3z"/>
  </g>
 </g>
</svg>
