<?xml version="1.0" encoding="UTF-8"?>
<!DOCTYPE svg PUBLIC "-//W3C//DTD SVG 1.0//EN" "http://www.w3.org/TR/2001/REC-SVG-20010904/DTD/svg10.dtd">
<!-- Creator: CorelDRAW Home & Student X7 -->
<svg xmlns="http://www.w3.org/2000/svg" xml:space="preserve" width="80px" height="80px" version="1.0" shape-rendering="geometricPrecision" text-rendering="geometricPrecision" image-rendering="optimizeQuality" fill-rule="evenodd" clip-rule="evenodd"
viewBox="0 0 80 80"
 xmlns:xlink="http://www.w3.org/1999/xlink">
 <g id="Camada_x0020_1">
  <metadata id="CorelCorpID_0Corel-Layer"/>
  <g id="_326288328">
   <circle fill="#8383DB" stroke="#8383DB" stroke-width="0.900018" cx="40" cy="40" r="36"/>
   <g>
    <path fill="white" d="M30 25c-6,0 -9,-1 -9,2l0 29c0,4 6,2 15,2l0 -3 -11 0 0 -26 5 0 0 3 4 0 0 -3 11 0 0 3 4 0 0 -3 6 0 0 7 3 0c0,-13 2,-11 -9,-11l0 -4 -4 0 0 4 -11 0 0 -4 -4 0 0 4z"/>
    <path fill="white" d="M42 49c0,-10 15,-10 15,0 0,10 -15,10 -15,0zm-4 -1c0,16 22,16 22,0 0,-13 -22,-14 -22,0z"/>
    <path fill="white" d="M47 49c0,2 3,4 5,5l2 -2c-3,-5 -3,-1 -3,-9l-4 0 0 6z"/>
   </g>
  </g>
 </g>
</svg>
