<?xml version="1.0" encoding="UTF-8"?>
<!DOCTYPE svg PUBLIC "-//W3C//DTD SVG 1.0//EN" "http://www.w3.org/TR/2001/REC-SVG-20010904/DTD/svg10.dtd">
<!-- Creator: CorelDRAW Home & Student X7 -->
<svg xmlns="http://www.w3.org/2000/svg" xml:space="preserve" width="72px" height="72px" version="1.0" shape-rendering="geometricPrecision" text-rendering="geometricPrecision" image-rendering="optimizeQuality" fill-rule="evenodd" clip-rule="evenodd"
viewBox="0 0 72 72"
 xmlns:xlink="http://www.w3.org/1999/xlink">
 <defs>
    <linearGradient id="id0" gradientUnits="userSpaceOnUse" x1="79.3736" y1="20.0409" x2="-7.37362" y2="51.9591">
     <stop offset="0" stop-opacity="1" stop-color="fuchsia"/>
     <stop offset="0.419608" stop-opacity="1" stop-color="#B34CFF"/>
     <stop offset="1" stop-opacity="1" stop-color="#6699FF"/>
    </linearGradient>
 </defs>
 <g id="Camada_x0020_1">
  <metadata id="CorelCorpID_0Corel-Layer"/>
  <g id="_328059136">
   <circle fill="url(#id0)" cx="36" cy="36" r="36"/>
   <path fill="white" d="M26 21c-6,0 -9,-1 -9,2l0 29c0,4 6,2 15,2l0 -3 -11 0 0 -26 5 0 0 3 4 0 0 -3 11 0 0 3 4 0 0 -3 6 0 0 7 3 0c0,-13 2,-11 -9,-11l0 -4 -4 0 0 4 -11 0 0 -4 -4 0 0 4z"/>
   <path fill="white" d="M38 45c0,-10 15,-10 15,0 0,10 -15,10 -15,0zm-4 -1c0,16 22,16 22,0 0,-13 -22,-14 -22,0z"/>
   <path fill="white" d="M43 45c0,2 3,4 5,5l2 -2c-3,-5 -3,-1 -3,-9l-4 0 0 6z"/>
  </g>
 </g>
</svg>
